<svg width="729" height="587" viewBox="0 0 729 587" version="1.1" xmlns="http://www.w3.org/2000/svg" xmlns:xlink="http://www.w3.org/1999/xlink">
<title>confetti</title>
<desc>Created using Figma</desc>
<g id="Canvas" transform="translate(-2701 108)">
<g id="confetti" opacity="0.3">
<g id="25">
<use xlink:href="#path0_fill" transform="matrix(-0.207912 -0.978148 0.978148 -0.207912 3206.24 211.582)" fill="#000000" fill-opacity="0.15"/>
</g>
<g id="9">
<use xlink:href="#path1_fill" transform="matrix(0.681998 0.731354 -0.731354 0.681998 2984.4 -108)" fill="#000000" fill-opacity="0.15"/>
</g>
<g id="4">
<use xlink:href="#path2_fill" transform="matrix(0.965926 0.258819 -0.258819 0.965926 3256.95 389)" fill="#000000" fill-opacity="0.15"/>
</g>
<g id="4">
<use xlink:href="#path3_fill" transform="matrix(-0.882948 -0.469472 0.469472 -0.882948 3326.37 -45.1386)" fill="#000000" fill-opacity="0.15"/>
</g>
<g id="4">
<use xlink:href="#path4_fill" transform="matrix(-0.731354 0.681998 -0.681998 -0.731354 2899.36 61.8211)" fill="#000000" fill-opacity="0.15"/>
</g>
<g id="3">
<use xlink:href="#path5_fill" transform="matrix(0.121869 -0.992546 0.992546 0.121869 3394 314.761)" fill="#000000" fill-opacity="0.15"/>
</g>
<g id="3">
<use xlink:href="#path6_fill" transform="matrix(0.156434 -0.987688 0.987688 0.156434 3016 260.212)" fill="#000000" fill-opacity="0.15"/>
</g>
<g id="Group 4" opacity="0.15">
<g id="path206">
<use xlink:href="#path7_fill" transform="matrix(0.125 0 0 -0.125 3095.84 39.3044)" fill="#3D4149"/>
</g>
<g id="path208">
<use xlink:href="#path8_fill" transform="matrix(0.125 0 0 -0.125 3095 40.1332)" fill="#3D4149"/>
</g>
<g id="path210">
<use xlink:href="#path9_fill" transform="matrix(0.125 0 0 -0.125 3131.3 44.1716)" fill="#CCD9D5"/>
</g>
<g id="path212">
<use xlink:href="#path10_fill" transform="matrix(0.125 0 0 -0.125 3130.46 45)" fill="#3D4149"/>
</g>
</g>
<g id="Group 4.1" opacity="0.15">
<g id="path206">
<use xlink:href="#path11_fill" transform="matrix(0.125 0 0 -0.125 2829.81 383.434)" fill="#3D4149"/>
</g>
<g id="path208">
<use xlink:href="#path12_fill" transform="matrix(0.125 0 0 -0.125 2829 384.244)" fill="#3D4149"/>
</g>
<g id="path210">
<use xlink:href="#path13_fill" transform="matrix(0.125 0 0 -0.125 2864.02 388.19)" fill="#CCD9D5"/>
</g>
<g id="path212">
<use xlink:href="#path14_fill" transform="matrix(0.125 0 0 -0.125 2863.21 389)" fill="#3D4149"/>
</g>
</g>
<g id="Group 19" opacity="0.15">
<g id="path286">
<use xlink:href="#path15_fill" transform="matrix(0.122023 0.0271163 0.0271163 -0.122023 3391.68 117.137)" fill="#3D4149"/>
</g>
<g id="path288">
<use xlink:href="#path16_fill" transform="matrix(0.122023 0.0271163 0.0271163 -0.122023 3388.93 118.892)" fill="#3D4149"/>
</g>
<g id="path290">
<use xlink:href="#path17_fill" transform="matrix(0.122023 0.0271163 0.0271163 -0.122023 3398.29 103.194)" fill="#FFFFFF"/>
</g>
<g id="path292">
<use xlink:href="#path18_fill" transform="matrix(0.122023 0.0271163 0.0271163 -0.122023 3395.54 104.947)" fill="#3D4149"/>
</g>
<g id="path294">
<use xlink:href="#path19_fill" transform="matrix(0.122023 0.0271163 0.0271163 -0.122023 3385.75 122.837)" fill="#FFFFFF"/>
</g>
<g id="path296">
<use xlink:href="#path20_fill" transform="matrix(0.122023 0.0271163 0.0271163 -0.122023 3383 124.591)" fill="#3D4149"/>
</g>
</g>
<g id="Group 19.1" opacity="0.15">
<g id="path286">
<use xlink:href="#path15_fill" transform="matrix(0.122023 0.0271163 0.0271163 -0.122023 3040.68 461.137)" fill="#3D4149"/>
</g>
<g id="path288">
<use xlink:href="#path16_fill" transform="matrix(0.122023 0.0271163 0.0271163 -0.122023 3037.93 462.892)" fill="#3D4149"/>
</g>
<g id="path290">
<use xlink:href="#path17_fill" transform="matrix(0.122023 0.0271163 0.0271163 -0.122023 3047.29 447.194)" fill="#FFFFFF"/>
</g>
<g id="path292">
<use xlink:href="#path18_fill" transform="matrix(0.122023 0.0271163 0.0271163 -0.122023 3044.54 448.947)" fill="#3D4149"/>
</g>
<g id="path294">
<use xlink:href="#path19_fill" transform="matrix(0.122023 0.0271163 0.0271163 -0.122023 3034.75 466.837)" fill="#FFFFFF"/>
</g>
<g id="path296">
<use xlink:href="#path20_fill" transform="matrix(0.122023 0.0271163 0.0271163 -0.122023 3032 468.591)" fill="#3D4149"/>
</g>
</g>
<g id="Group 8" opacity="0.15">
<g id="Union">
<use xlink:href="#path21_fill" transform="matrix(0.93587 0.352345 -0.352345 0.93587 2708.75 173)" fill="#3D4149"/>
</g>
</g>
<g id="Union">
<use xlink:href="#path22_fill" transform="translate(2715 -59)" fill="#3D4149" fill-opacity="0.15"/>
</g>
</g>
</g>
<defs>
<path id="path0_fill" d="M 29.4094 2.58945C 28.6208 1.80192 27.3446 1.80192 26.5561 2.58945L 2.58945 26.5561C 1.80192 27.3446 1.80192 28.6208 2.58945 29.4094C 3.37697 30.1969 4.65421 30.1969 5.44273 29.4094L 29.4094 5.44173C 30.1969 4.65421 30.1969 3.37697 29.4094 2.58945ZM 3.44393 7.42155L 7.42255 3.44293C 8.21007 2.65541 8.21007 1.37817 7.42255 0.590645C 6.63402 -0.196882 5.35779 -0.196882 4.57026 0.590645L 0.590645 4.56926C -0.196882 5.35779 -0.196882 6.63402 0.590645 7.42155C 1.37817 8.21007 2.65541 8.21007 3.44393 7.42155ZM 4.44333 18.415L 18.416 4.44233C 19.2035 3.65481 19.2035 2.37757 18.416 1.59005C 17.6274 0.802519 16.3512 0.802519 15.5627 1.59005L 1.59005 15.5627C 0.802519 16.3512 0.802519 17.6274 1.59005 18.415C 2.37757 19.2035 3.65481 19.2035 4.44333 18.415Z"/>
<path id="path1_fill" d="M 16 21C 9.37302 21 4.00001 22.791 4.00001 25C 4.00001 27.209 9.37302 29 16 29C 22.627 29 28 27.209 28 25C 28 22.791 22.627 21 16 21ZM 16 6L 7.235 19.147C 9.753 18.424 12.762 18 16 18C 19.238 18 22.247 18.424 24.765 19.147L 16 6ZM 32 25C 32 28.866 24.836 32 16 32C 7.16401 32 1.44609e-05 28.866 1.44609e-05 25C 1.44609e-05 23.776 0.89503 22.784 0.77803 22.942L 16 1.65823e-07L 31.272 22.908C 31.28 22.919 31.286 22.93 31.293 22.94C 31.293 22.94 32 23.754 32 25Z"/>
<path id="path2_fill" d="M 7.26379 13.1244C 7.30246 13.0785 7.31792 13.0222 7.36142 12.9801C 8.11346 12.2358 9.33433 12.2358 10.0873 12.9801L 15.515 18.3454L 20.7967 13.1244C 20.8354 13.0785 20.8508 13.0222 20.8943 12.9801C 21.2771 12.6017 21.7797 12.4173 22.2814 12.424C 22.7831 12.4173 23.2867 12.6017 23.6695 12.9801C 23.713 13.0222 23.7285 13.0785 23.7662 13.1244L 30.436 19.7166C 31.188 20.4609 31.188 21.6678 30.436 22.4121C 29.683 23.1565 28.4621 23.1565 27.7091 22.4121L 22.2814 17.0459L 17.0007 22.2659C 16.962 22.3118 16.9466 22.3691 16.9031 22.4121C 16.5203 22.7905 16.0167 22.974 15.515 22.9673C 15.0133 22.974 14.5106 22.7905 14.1269 22.4121C 14.0834 22.3691 14.0679 22.3118 14.0293 22.2659L 8.74853 17.0459L 3.29092 22.4417C 2.53791 23.1861 1.31703 23.1861 0.564022 22.4417C -0.18802 21.6974 -0.18802 20.4905 0.564022 19.7471L 7.26379 13.1244ZM 27.7091 9.99028L 22.2814 4.62404L 17.0007 9.84407C 16.962 9.88993 16.9466 9.94728 16.9031 9.99028C 16.5203 10.3687 16.0167 10.5521 15.515 10.5464C 15.0133 10.5521 14.5106 10.3687 14.1269 9.99028C 14.0834 9.94728 14.0679 9.88993 14.0293 9.84407L 8.74853 4.62404L 3.29092 10.0199C 2.53791 10.7642 1.31703 10.7642 0.564022 10.0199C -0.18802 9.27553 -0.18802 8.0687 0.564022 7.3253L 7.26379 0.702559C 7.30246 0.656694 7.31792 0.600315 7.36142 0.558272C 8.11346 -0.186083 9.33433 -0.186083 10.0873 0.558272L 15.515 5.92259L 20.7967 0.702559C 20.8354 0.656694 20.8508 0.600315 20.8943 0.558272C 21.2771 0.179883 21.7797 -0.00453824 22.2814 0.00214976C 22.7831 -0.00453824 23.2867 0.179883 23.6695 0.558272C 23.713 0.600315 23.7285 0.656694 23.7662 0.702559L 30.436 7.29472C 31.188 8.03908 31.188 9.24592 30.436 9.99028C 29.683 10.7346 28.4621 10.7346 27.7091 9.99028Z"/>
<path id="path3_fill" d="M 7.26378 13.1244C 7.30244 13.0785 7.31791 13.0222 7.3614 12.9801C 8.11345 12.2358 9.33432 12.2358 10.0873 12.9801L 15.515 18.3454L 20.7967 13.1244C 20.8353 13.0785 20.8508 13.0222 20.8943 12.9801C 21.2771 12.6017 21.7797 12.4173 22.2814 12.424C 22.7831 12.4173 23.2867 12.6017 23.6695 12.9801C 23.713 13.0222 23.7285 13.0785 23.7662 13.1244L 30.436 19.7166C 31.188 20.4609 31.188 21.6678 30.436 22.4121C 29.6829 23.1565 28.4621 23.1565 27.7091 22.4121L 22.2814 17.0459L 17.0007 22.2659C 16.9621 22.3118 16.9466 22.3691 16.9031 22.4121C 16.5203 22.7905 16.0167 22.974 15.515 22.9673C 15.0133 22.974 14.5107 22.7905 14.1269 22.4121C 14.0834 22.3691 14.0679 22.3118 14.0293 22.2659L 8.74852 17.0459L 3.29091 22.4417C 2.5379 23.1861 1.31705 23.1861 0.564041 22.4417C -0.188001 21.6974 -0.188001 20.4905 0.564041 19.7472L 7.26378 13.1244ZM 27.7091 9.99027L 22.2814 4.62403L 17.0007 9.84407C 16.9621 9.88994 16.9466 9.94727 16.9031 9.99027C 16.5203 10.3687 16.0167 10.5521 15.515 10.5464C 15.0133 10.5521 14.5107 10.3687 14.1269 9.99027C 14.0834 9.94727 14.0679 9.88994 14.0293 9.84407L 8.74852 4.62403L 3.29091 10.0199C 2.5379 10.7642 1.31705 10.7642 0.564041 10.0199C -0.188001 9.27554 -0.188001 8.0687 0.564041 7.3253L 7.26378 0.702548C 7.30244 0.656683 7.31791 0.600312 7.3614 0.558269C 8.11345 -0.186086 9.33432 -0.186086 10.0873 0.558269L 15.515 5.9226L 20.7967 0.702548C 20.8353 0.656683 20.8508 0.600312 20.8943 0.558269C 21.2771 0.17988 21.7797 -0.00454105 22.2814 0.00214695C 22.7831 -0.00454105 23.2867 0.17988 23.6695 0.558269C 23.713 0.600312 23.7285 0.656683 23.7662 0.702548L 30.436 7.29473C 31.188 8.03908 31.188 9.24591 30.436 9.99027C 29.6829 10.7346 28.4621 10.7346 27.7091 9.99027Z"/>
<path id="path4_fill" d="M 7.26378 13.1244C 7.30245 13.0785 7.31791 13.0221 7.36141 12.9801C 8.11345 12.2357 9.33432 12.2357 10.0873 12.9801L 15.515 18.3454L 20.7967 13.1244C 20.8353 13.0785 20.8508 13.0221 20.8943 12.9801C 21.2771 12.6017 21.7797 12.4173 22.2814 12.424C 22.7831 12.4173 23.2867 12.6017 23.6695 12.9801C 23.713 13.0221 23.7285 13.0785 23.7662 13.1244L 30.436 19.7166C 31.188 20.4609 31.188 21.6677 30.436 22.4121C 29.683 23.1565 28.4621 23.1565 27.7091 22.4121L 22.2814 17.0459L 17.0007 22.2659C 16.962 22.3118 16.9466 22.3691 16.9031 22.4121C 16.5203 22.7905 16.0167 22.974 15.515 22.9673C 15.0133 22.974 14.5106 22.7905 14.1269 22.4121C 14.0834 22.3691 14.0679 22.3118 14.0293 22.2659L 8.74853 17.0459L 3.29091 22.4417C 2.5379 23.1861 1.31704 23.1861 0.564032 22.4417C -0.188011 21.6974 -0.188011 20.4906 0.564032 19.7472L 7.26378 13.1244ZM 27.7091 9.99026L 22.2814 4.62402L 17.0007 9.84408C 16.962 9.88995 16.9466 9.94726 16.9031 9.99026C 16.5203 10.3686 16.0167 10.5521 15.515 10.5464C 15.0133 10.5521 14.5106 10.3686 14.1269 9.99026C 14.0834 9.94726 14.0679 9.88995 14.0293 9.84408L 8.74853 4.62402L 3.29091 10.0199C 2.5379 10.7642 1.31704 10.7642 0.564032 10.0199C -0.188011 9.27554 -0.188011 8.06871 0.564032 7.32531L 7.26378 0.70254C 7.30245 0.656675 7.31791 0.600296 7.36141 0.558253C 8.11345 -0.186102 9.33432 -0.186102 10.0873 0.558253L 15.515 5.9226L 20.7967 0.70254C 20.8353 0.656675 20.8508 0.600296 20.8943 0.558253C 21.2771 0.179864 21.7797 -0.00452614 22.2814 0.00216186C 22.7831 -0.00452614 23.2867 0.179864 23.6695 0.558253C 23.713 0.600296 23.7285 0.656675 23.7662 0.70254L 30.436 7.29473C 31.188 8.03909 31.188 9.24591 30.436 9.99026C 29.683 10.7346 28.4621 10.7346 27.7091 9.99026Z"/>
<path id="path5_fill" d="M 16 28C 9.37301 28 4.00001 22.628 4.00001 16C 4.00001 9.37201 9.37301 4.00001 16 4.00001C 22.627 4.00001 28 9.37201 28 16C 28 22.628 22.627 28 16 28ZM 16 9.95898e-06C 7.16401 9.95898e-06 9.95898e-06 7.16301 9.95898e-06 16C 9.95898e-06 24.836 7.16401 32 16 32C 24.836 32 32 24.836 32 16C 32 7.16301 24.836 9.95898e-06 16 9.95898e-06Z"/>
<path id="path6_fill" d="M 11.7505 20.5634C 6.88361 20.5634 2.93763 16.6182 2.93763 11.7505C 2.93763 6.88287 6.88361 2.93763 11.7505 2.93763C 16.6175 2.93763 20.5634 6.88287 20.5634 11.7505C 20.5634 16.6182 16.6175 20.5634 11.7505 20.5634ZM 11.7505 -8.20472e-07C 5.2613 -8.20472e-07 -3.0072e-06 5.26057 -3.0072e-06 11.7505C -3.0072e-06 18.2398 5.2613 23.5011 11.7505 23.5011C 18.2398 23.5011 23.5011 18.2398 23.5011 11.7505C 23.5011 5.26057 18.2398 -8.20472e-07 11.7505 -8.20472e-07Z"/>
<path id="path7_fill" d="M 154.146 216.166C 191.202 214.886 220.194 184.178 218.893 147.579C 217.597 110.986 186.502 82.3553 149.442 83.6394C 112.386 84.9236 83.3946 115.627 84.695 152.226C 85.9908 188.824 117.086 217.45 154.146 216.166ZM 14.399 133.039L 51.6262 131.75C 53.8161 119.908 58.1144 108.774 64.1376 98.7373L 36.8798 73.6427C 30.8522 68.0914 30.5225 58.7679 36.1393 52.8198L 45.6301 42.7652C 51.2469 36.8126 60.688 36.487 66.7157 42.0338L 93.9734 67.1327L 93.969 67.1327C 103.686 60.498 114.635 55.4818 126.446 52.4989L 125.141 15.7312C 124.852 7.59824 131.295 0.776115 139.531 0.490748L 153.438 0.00915728C 161.673 -0.276209 168.581 6.08663 168.87 14.2196L 170.175 50.9829C 182.167 53.1454 193.446 57.3903 203.61 63.3384L 229.021 36.4202C 234.637 30.4677 244.079 30.1421 250.106 35.6889L 260.283 45.0614C 266.311 50.6082 266.641 59.9318 261.024 65.8844L 235.613 92.8025C 242.327 102.398 247.406 113.211 250.427 124.871L 287.659 123.586C 295.894 123.301 302.802 129.659 303.091 137.792L 303.579 151.525C 303.868 159.658 297.425 166.481 289.189 166.766L 251.962 168.055C 249.772 179.897 245.474 191.035 239.451 201.072L 266.708 226.167C 272.736 231.713 273.07 241.037 267.449 246.99L 257.958 257.04C 252.341 262.992 242.9 263.318 236.873 257.771L 209.615 232.677C 199.898 239.311 188.949 244.323 177.142 247.311L 178.447 284.074C 178.736 292.207 172.293 299.029 164.057 299.314L 150.151 299.796C 141.915 300.081 135.007 293.718 134.718 285.59L 133.413 248.822C 121.421 246.66 110.147 242.415 99.9831 236.471L 74.5675 263.389C 68.9507 269.337 59.5096 269.667 53.4819 264.116L 43.3048 254.748C 37.2771 249.197 36.9475 239.873 42.5644 233.921L 67.9755 207.002C 61.2615 197.407 56.1819 186.594 53.1568 174.934L 15.9297 176.223C 7.6941 176.508 0.785942 170.146 0.496974 162.013L 0.00936102 148.28C -0.279607 140.147 6.16347 133.324 14.399 133.039"/>
<path id="path8_fill" d="M 158.467 216.21C 125.773 216.21 99.2651 190.915 98.1182 158.624C 97.5538 142.692 103.302 127.496 114.309 115.841C 125.313 104.181 140.262 97.4528 156.39 96.8955C 190.005 95.6336 217.728 121.441 218.898 154.446C 220.067 187.325 193.925 215.019 160.626 216.17C 159.903 216.197 159.185 216.21 158.467 216.21L 158.467 216.21ZM 158.549 83.5947C 157.677 83.5947 156.801 83.6124 155.921 83.6436C 136.208 84.3259 117.94 92.5481 104.489 106.799C 91.034 121.049 84.0085 139.62 84.6993 159.092C 86.1261 199.413 119.759 230.768 161.095 229.421C 201.79 228.017 233.748 194.17 232.321 153.977C 230.917 114.512 198.512 83.5947 158.549 83.5947L 158.549 83.5947ZM 100.687 80.3931C 102.015 80.3931 103.347 80.0051 104.503 79.2159C 113.768 72.8933 123.972 68.2918 134.826 65.5496C 137.883 64.7782 139.978 62.0092 139.87 58.8924L 138.565 22.1293C 138.407 17.666 141.956 13.9027 146.48 13.7511L 160.386 13.2652L 160.684 6.63023L 160.684 13.2606C 165.123 13.2606 168.721 16.6939 168.875 21.0814L 170.18 57.8491C 170.292 60.9614 172.582 63.5787 175.683 64.1405C 186.718 66.1247 197.221 70.0085 206.901 75.6713C 209.619 77.2542 213.087 76.7682 215.231 74.4897L 240.643 47.567C 243.627 44.4057 249.023 44.2141 252.242 47.1703L 262.419 56.5428C 264.026 58.0187 264.947 60.0207 265.029 62.1832C 265.101 64.3458 264.324 66.4058 262.83 67.9887L 237.414 94.9112C 235.265 97.1897 235.008 100.641 236.805 103.205C 243.207 112.345 247.862 122.418 250.639 133.146C 251.42 136.164 254.116 138.34 257.38 138.131L 294.607 136.842L 294.616 136.842C 299.348 136.842 302.942 140.271 303.096 144.654L 303.583 158.392C 303.741 162.855 300.192 166.614 295.668 166.77L 258.441 168.059C 255.29 168.17 252.635 170.431 252.07 173.494C 250.056 184.387 246.128 194.758 240.39 204.322C 238.782 207.002 239.283 210.427 241.591 212.549L 268.848 237.643C 272.158 240.693 272.339 245.83 269.255 249.103L 259.764 259.149C 256.77 262.323 251.375 262.506 248.16 259.55L 220.911 234.455C 218.6 232.333 215.11 232.083 212.509 233.853C 203.253 240.172 193.053 244.769 182.19 247.52C 179.133 248.291 177.038 251.06 177.146 254.173L 178.451 290.94C 178.528 293.103 177.742 295.163 176.248 296.75C 174.758 298.333 172.726 299.243 170.536 299.318L 156.63 299.8L 156.616 299.8C 151.889 299.8 148.295 296.367 148.141 291.984L 146.836 255.22C 146.724 252.108 144.434 249.491 141.332 248.929C 130.302 246.94 119.8 243.061 110.115 237.394C 107.397 235.802 103.938 236.306 101.785 238.576L 76.3734 265.493C 73.3799 268.664 67.9844 268.851 64.7741 265.899L 54.597 256.527C 52.9896 255.051 52.0685 253.049 51.9873 250.886C 51.915 248.719 52.6916 246.659 54.1861 245.072L 79.6017 218.158C 81.7509 215.88 82.0083 212.429 80.2158 209.869C 73.8134 200.72 69.1582 190.647 66.3769 179.919C 65.5913 176.901 62.8597 174.827 59.6359 174.939L 22.4087 176.227L 22.3997 176.227C 17.6678 176.227 14.0738 172.794 13.9203 168.411L 13.4327 154.678C 13.3559 152.515 14.137 150.455 15.6315 148.872C 17.126 147.285 19.1578 146.371 21.3477 146.295L 58.5749 145.006C 61.7264 144.899 64.3813 142.634 64.9456 139.575C 66.9594 128.678 70.8876 118.307 76.6263 108.747C 78.2337 106.067 77.7325 102.643 75.4297 100.516L 48.172 75.4215C 44.8624 72.3761 44.6773 67.2351 47.7611 63.9668L 57.2519 53.9209C 58.8231 52.2532 60.9543 51.3392 63.257 51.3392L 63.2615 51.3392C 65.343 51.3392 67.3251 52.1107 68.8557 53.5152L 96.1045 78.6096C 97.3868 79.7912 99.0302 80.3931 100.687 80.3931ZM 160.684 7.83783e-05L 159.917 0.0133591L 146.006 0.49495C 134.09 0.909624 124.73 10.8216 125.146 22.5974L 126.266 54.1662C 117.533 56.8371 109.212 60.5913 101.414 65.3667L 78.0079 43.8172C 73.9849 40.1164 68.7519 38.0786 63.2615 38.0786L 63.257 38.0786C 57.2745 38.0786 51.5042 40.5578 47.4315 44.8784L 37.9407 54.9241C 29.809 63.5431 30.2921 77.0847 39.0153 85.1196L 62.4217 106.669C 58.1458 114.677 54.9401 123.14 52.8451 131.938L 20.8781 133.043C 15.0987 133.244 9.75284 135.652 5.81114 139.825C 1.86944 144.003 -0.189443 149.438 0.0137373 155.146L 0.50135 168.879C 0.912226 180.441 10.403 189.492 22.1107 189.492L 22.8783 189.479L 54.8499 188.373C 57.5635 197.001 61.3606 205.219 66.1918 212.915L 44.3658 236.029C 40.4286 240.207 38.3697 245.647 38.5729 251.35C 38.7761 257.053 41.2142 262.337 45.4404 266.225L 55.6174 275.597C 64.0201 283.32 78.3691 282.821 86.1938 274.536L 108.015 251.421C 116.125 255.648 124.699 258.814 133.598 260.879L 134.722 292.452C 135.129 304.009 144.624 313.065 156.332 313.065L 157.099 313.056L 171.01 312.57C 176.781 312.369 182.136 309.962 186.073 305.788C 190.01 301.615 192.069 296.175 191.87 290.472L 190.75 258.903C 199.483 256.228 207.809 252.469 215.602 247.698L 239.008 269.248C 247.406 276.975 261.769 276.476 269.584 268.191L 279.075 258.141C 287.207 249.526 286.728 235.976 278.005 227.945L 254.594 206.396C 258.87 198.383 262.076 189.925 264.171 181.132L 296.142 180.026C 308.062 179.612 317.418 169.699 317.002 157.924L 316.515 144.19C 316.104 132.629 306.613 123.577 294.901 123.577L 294.138 123.59L 262.171 124.696C 259.457 116.064 255.66 107.846 250.824 100.15L 272.65 77.0357C 276.587 72.8622 278.646 67.4224 278.443 61.7195C 278.24 56.0166 275.802 50.7329 271.571 46.8448L 261.399 37.4723C 252.991 29.7406 238.642 30.2534 230.822 38.5245L 209.001 61.6437C 200.891 57.4212 192.322 54.2553 183.418 52.1909L 182.294 20.6133C 181.883 9.056 172.392 7.83783e-05 160.684 7.83783e-05"/>
<path id="path9_fill" d="M 77.9342 113.142C 97.3266 113.971 113.725 99.1232 114.57 79.9724C 115.41 60.8216 100.374 44.6271 80.9819 43.7977C 61.5895 42.9639 45.1905 57.8163 44.3461 76.9627C 43.5063 96.1134 58.5463 112.308 77.9342 113.142ZM 8.4645 64.1077L 27.9428 64.9416C 29.5773 58.8508 32.2818 53.2148 35.8397 48.2209L 22.66 34.0238C 19.7432 30.8847 19.9555 26.0068 23.1386 23.1263L 28.5072 18.2662C 31.6858 15.3858 36.6253 15.5999 39.5376 18.7389L 52.7217 32.9358C 58.0676 29.8681 63.9869 27.6968 70.2764 26.6133L 71.1208 7.37774C 71.306 3.12399 74.9497 -0.175464 79.2571 0.00734872L 86.5354 0.319338C 90.8428 0.502151 94.184 4.10057 93.9989 8.35878L 93.1546 27.5941C 99.3223 29.2082 105.029 31.8791 110.086 35.3971L 110.086 35.3928L 124.462 22.3774C 127.646 19.497 132.585 19.711 135.497 22.8501L 140.419 28.1515C 143.336 31.2905 143.119 36.1686 139.94 39.0445L 125.564 52.0645C 128.671 57.3438 130.874 63.1893 131.967 69.4005L 151.445 70.2343C 155.757 70.4171 159.098 74.0153 158.908 78.2735L 158.592 85.4567C 158.407 89.7149 154.763 93.0146 150.451 92.8273L 130.973 91.9934C 129.339 98.0842 126.634 103.72 123.076 108.714L 136.256 122.916C 139.173 126.055 138.956 130.933 135.777 133.808L 130.409 138.673C 127.23 141.549 122.291 141.34 119.378 138.2L 106.194 123.999C 100.848 127.067 94.9291 129.243 88.644 130.322L 87.7951 149.557C 87.61 153.816 83.9663 157.115 79.6589 156.928L 72.3806 156.616C 68.0686 156.433 64.7274 152.835 64.9171 148.581L 65.7613 129.341C 59.5937 127.727 53.8866 125.056 48.8296 121.542L 34.449 134.562C 31.2704 137.438 26.3309 137.229 23.4186 134.09L 18.4926 128.783C 15.5803 125.644 15.7971 120.766 18.9757 117.89L 33.3519 104.871C 30.2455 99.5913 28.042 93.7457 26.9494 87.5389L 7.4712 86.7053C 3.15926 86.518 -0.181946 82.9196 0.00768907 78.6659L 0.323725 71.4781C 0.508845 67.2244 4.15256 63.9249 8.4645 64.1077"/>
<path id="path10_fill" d="M 86.2023 113.17L 84.9425 113.143C 77.3526 112.818 70.3497 109.594 65.216 104.07C 60.0823 98.5406 57.441 91.3708 57.7706 83.8799C 58.4298 68.8179 70.8914 57.0199 86.1435 57.0199L 87.4032 57.0465C 94.9932 57.372 101.996 60.5958 107.125 66.1203C 112.259 71.6493 114.905 78.8192 114.575 86.3101C 113.916 101.372 101.45 113.17 86.2023 113.17ZM 86.1435 43.7635C 63.6808 43.7635 45.3269 61.1309 44.3562 83.3047C 43.8731 94.3315 47.765 104.89 55.3233 113.032C 62.8771 121.169 73.1897 125.913 84.3601 126.391C 107.672 127.309 126.987 109.665 127.99 86.8897C 128.477 75.854 124.581 65.2999 117.027 57.1625C 109.469 49.0207 99.1561 44.2763 87.9857 43.7992C 87.3717 43.777 86.7531 43.7635 86.1435 43.7635L 86.1435 43.7635ZM 59.4366 46.1937C 60.5925 46.1937 61.7574 45.8995 62.8094 45.2976C 67.5729 42.5598 72.7291 40.7049 78.1382 39.773C 81.2446 39.2379 83.5564 36.6384 83.6964 33.5306L 84.5407 14.2907C 84.5678 13.711 85.0464 13.2607 85.6288 13.2607L 85.6288 6.63031L 85.683 13.2607L 92.9614 13.5683C 93.4761 13.5906 94.0315 14.188 94.0089 14.6963L 93.1645 33.9364C 93.0246 37.0487 95.1016 39.8355 98.1538 40.6336C 103.45 42.0159 108.426 44.3075 112.941 47.4421C 115.514 49.2346 119.014 49.0117 121.339 46.9072L 135.715 33.8918C 136.094 33.5485 136.65 33.2898 137.268 33.9586L 142.185 39.2603C 142.596 39.7017 142.565 40.3838 142.118 40.7895L 127.741 53.8049C 125.416 55.9095 124.888 59.3295 126.473 62.0226C 129.24 66.7267 131.123 71.8232 132.067 77.1649C 132.604 80.2326 135.237 82.5156 138.388 82.6494L 157.871 83.483C 158.471 83.5098 158.945 84.0138 158.918 84.6113L 158.602 91.799C 158.575 92.3697 158.087 92.8334 157.514 92.8334L 137.977 91.9995C 134.853 91.9014 132.008 93.908 131.195 96.9267C 129.796 102.166 127.475 107.079 124.305 111.525C 122.486 114.071 122.712 117.522 124.843 119.823L 138.022 134.02L 137.955 135.549L 132.586 140.414C 132.216 140.748 131.661 141.007 131.042 140.347L 117.858 126.145C 115.722 123.854 112.259 123.336 109.536 124.892C 104.773 127.63 99.6122 129.49 94.203 130.417C 91.0966 130.952 88.7849 133.552 88.6494 136.664L 87.8052 155.904C 87.7781 156.479 87.2994 156.934 86.7169 156.934L 79.3799 156.622C 78.7794 156.595 78.3144 156.091 78.3415 155.494L 79.1812 136.254C 79.3212 133.141 77.2397 130.355 74.192 129.561C 68.8913 128.174 63.9156 125.882 59.4095 122.748C 56.8269 120.96 53.3322 121.183 51.0069 123.283L 36.6308 136.298C 36.2605 136.637 35.7007 136.896 35.0821 136.236L 30.156 130.93C 29.7497 130.493 29.7768 129.806 30.2283 129.4L 44.6044 116.39C 46.9252 114.28 47.4535 110.861 45.8687 108.167C 43.1009 103.463 41.2181 98.3712 40.279 93.0295C 39.7372 89.9574 37.1049 87.6789 33.9533 87.5406L 14.4796 86.7068C 13.9603 86.6845 13.405 86.0871 13.4276 85.5788L 13.7436 78.3911C 13.7707 77.8203 14.2583 77.3567 14.8317 77.3567L 34.3642 78.1906C 37.4209 78.3199 40.3377 76.2821 41.1459 73.268C 42.5546 68.0243 44.8754 63.1107 48.045 58.6652C 49.8601 56.1192 49.6343 52.6634 47.5032 50.3671L 34.3235 36.1702L 34.3868 34.6453L 39.7552 29.7763C 40.1299 29.4419 40.6944 29.1742 41.3039 29.8475L 54.4836 44.0446C 55.7929 45.4536 57.608 46.1937 59.4366 46.1937L 59.4366 46.1937ZM 85.6288 -6.09609e-05C 77.8357 -6.09609e-05 71.4649 6.02396 71.1262 13.7155L 70.5032 27.8767C 67.2117 28.7551 64.0014 29.9101 60.904 31.3369L 51.2056 20.8854C 46.0042 15.2806 36.3734 14.8569 30.6844 20.0069L 25.3158 24.8715C 22.4578 27.4577 20.7872 30.9891 20.6202 34.8193C 20.4531 38.645 21.8031 42.3101 24.4264 45.1326L 34.1248 55.5795C 32.4226 58.5045 30.9779 61.5589 29.8039 64.7247L 15.4684 64.1095L 15.4368 64.1095C 7.02514 64.1095 0.667871 70.1333 0.329237 77.8159L 0.0130902 85.0079C -0.149454 88.8336 1.20065 92.4944 3.81942 95.3169C 6.4427 98.1393 10.0186 99.789 13.8926 99.954L 28.2326 100.57C 29.1221 103.82 30.2915 106.99 31.7318 110.049L 21.1529 119.627C 15.2516 124.977 14.8498 134.064 20.2589 139.892L 25.1849 145.194C 30.3863 150.799 40.0217 151.218 45.7062 146.077L 56.2851 136.494C 59.247 138.18 62.3444 139.602 65.5456 140.761L 64.927 154.923C 64.5793 162.82 70.8011 169.526 78.8019 169.869L 86.0804 170.177L 86.1075 170.177C 94.5282 170.177 100.881 164.157 101.22 156.475L 101.838 142.313C 105.139 141.435 108.344 140.28 111.442 138.858L 121.145 149.305C 126.351 154.909 135.977 155.329 141.662 150.183L 147.03 145.323C 149.888 142.732 151.554 139.201 151.726 135.375C 151.893 131.545 150.543 127.884 147.919 125.058L 138.216 114.61C 139.928 111.685 141.368 108.631 142.537 105.465L 156.877 106.081L 156.905 106.081C 165.321 106.081 171.678 100.061 172.012 92.374L 172.333 85.1865C 172.68 77.2854 166.449 70.5837 158.453 70.2404L 144.113 69.6249C 143.224 66.3699 142.054 63.1999 140.609 60.1411L 151.193 50.5633C 157.094 45.2171 157.491 36.1257 152.082 30.2979L 147.165 24.9963C 141.946 19.3915 132.32 18.977 126.64 24.118L 116.061 33.7C 113.094 32.0101 110.006 30.5878 106.8 29.4329L 107.419 15.2715C 107.59 11.4458 106.24 7.78069 103.617 4.95824C 100.998 2.13578 97.4178 0.490509 93.5439 0.321072L 86.2609 0.0134375L 85.6288 -6.09609e-05"/>
<path id="path11_fill" d="M 148.738 211.253C 184.493 210.002 212.468 179.992 211.213 144.225C 209.962 108.463 179.958 80.4836 144.198 81.7385C 108.443 82.9935 80.4685 112.999 81.7232 148.766C 82.9736 184.532 112.978 212.508 148.738 211.253ZM 13.8938 130.015L 49.8148 128.756C 51.9278 117.183 56.0753 106.302 61.8872 96.4932L 35.5858 71.969C 29.7696 66.5439 29.4516 57.4323 34.8713 51.6193L 44.0291 41.7932C 49.4488 35.9759 58.5586 35.6578 64.3748 41.0785L 90.6761 65.607L 90.6719 65.607C 100.047 59.123 110.612 54.2209 122.01 51.3057L 120.75 15.3737C 120.472 7.42555 126.689 0.758476 134.635 0.479595L 148.054 0.00894916C 156 -0.269932 162.666 5.94829 162.945 13.8964L 164.204 49.8242C 175.775 51.9376 186.658 56.0859 196.465 61.8989L 220.985 35.5925C 226.405 29.7752 235.514 29.457 241.331 34.8778L 251.151 44.0373C 256.967 49.4581 257.285 58.5697 251.865 64.387L 227.346 90.6934C 233.824 100.071 238.725 110.638 241.64 122.033L 277.565 120.778C 285.512 120.499 292.178 126.713 292.456 134.661L 292.927 148.082C 293.206 156.03 286.989 162.697 279.042 162.976L 243.121 164.235C 241.008 175.809 236.861 186.694 231.049 196.502L 257.35 221.026C 263.166 226.447 263.489 235.559 258.065 241.376L 248.907 251.198C 243.487 257.015 234.377 257.333 228.561 251.913L 202.26 227.388C 192.884 233.872 182.319 238.77 170.927 241.69L 172.186 277.618C 172.464 285.566 166.247 292.233 158.301 292.512L 144.882 292.982C 136.936 293.261 130.27 287.043 129.991 279.099L 128.732 243.167C 117.161 241.054 106.282 236.905 96.4749 231.097L 71.9511 257.403C 66.5313 263.216 57.4215 263.539 51.6053 258.113L 41.7853 248.958C 35.9691 243.533 35.6511 234.422 41.0709 228.604L 65.5904 202.298C 59.112 192.921 54.2106 182.354 51.2917 170.959L 15.3707 172.218C 7.42413 172.497 0.758365 166.279 0.479536 158.331L 0.00903256 144.91C -0.269796 136.961 5.9472 130.294 13.8938 130.015"/>
<path id="path12_fill" d="M 152.907 211.296C 121.36 211.296 95.7821 186.576 94.6755 155.019C 94.1309 139.449 99.677 124.599 110.299 113.208C 120.916 101.813 135.341 95.238 150.903 94.6933C 183.339 93.4601 210.089 118.681 211.217 150.936C 212.345 183.068 187.12 210.133 154.99 211.257C 154.292 211.283 153.6 211.296 152.907 211.296L 152.907 211.296ZM 152.986 81.6948C 152.145 81.6948 151.299 81.7122 150.45 81.7427C 131.429 82.4094 113.801 90.4447 100.823 104.371C 87.8399 118.298 81.0608 136.447 81.7274 155.476C 83.1041 194.881 115.557 225.523 155.443 224.207C 194.71 222.835 225.546 189.757 224.169 150.478C 222.815 111.91 191.547 81.6948 152.986 81.6948L 152.986 81.6948ZM 97.1544 78.566C 98.4353 78.566 99.7206 78.1868 100.836 77.4156C 109.776 71.2366 119.622 66.7397 130.095 64.0598C 133.045 63.306 135.066 60.5999 134.962 57.554L 133.703 21.6264C 133.55 17.2645 136.975 13.5867 141.34 13.4386L 154.759 12.9637L 155.046 6.47954L 155.046 12.9592C 159.329 12.9592 162.801 16.3145 162.949 20.6023L 164.208 56.5344C 164.317 59.5759 166.526 62.1337 169.519 62.6828C 180.167 64.6219 190.301 68.4174 199.641 73.9515C 202.264 75.4984 205.61 75.0235 207.679 72.7968L 232.199 46.4859C 235.079 43.3964 240.285 43.2092 243.391 46.0983L 253.211 55.2578C 254.762 56.7001 255.651 58.6566 255.729 60.77C 255.799 62.8834 255.05 64.8966 253.608 66.4435L 229.084 92.7541C 227.01 94.9808 226.762 98.3536 228.496 100.859C 234.674 109.792 239.165 119.636 241.845 130.12C 242.598 133.07 245.199 135.196 248.349 134.992L 284.27 133.732L 284.279 133.732C 288.845 133.732 292.313 137.083 292.461 141.367L 292.931 154.792C 293.084 159.154 289.659 162.827 285.294 162.98L 249.373 164.239C 246.332 164.348 243.77 166.557 243.226 169.551C 241.283 180.196 237.492 190.332 231.955 199.679C 230.404 202.298 230.888 205.644 233.114 207.718L 259.415 232.242C 262.609 235.223 262.783 240.243 259.807 243.441L 250.649 253.259C 247.761 256.361 242.555 256.54 239.453 253.651L 213.16 229.127C 210.929 227.053 207.562 226.809 205.052 228.539C 196.121 234.713 186.279 239.206 175.797 241.894C 172.848 242.648 170.826 245.354 170.931 248.396L 172.19 284.328C 172.264 286.441 171.506 288.454 170.064 290.006C 168.626 291.553 166.666 292.442 164.553 292.516L 151.134 292.986L 151.121 292.986C 146.559 292.986 143.091 289.631 142.943 285.348L 141.684 249.42C 141.575 246.378 139.366 243.82 136.373 243.271C 125.73 241.328 115.596 237.537 106.251 231.998C 103.629 230.443 100.291 230.935 98.2132 233.153L 73.6937 259.46C 70.8052 262.558 65.599 262.741 62.5013 259.856L 52.6813 250.697C 51.1304 249.254 50.2416 247.298 50.1632 245.184C 50.0935 243.067 50.8427 241.053 52.2848 239.502L 76.8087 213.2C 78.8825 210.974 79.1308 207.601 77.4012 205.1C 71.2234 196.158 66.7316 186.314 64.0479 175.83C 63.2898 172.88 60.6541 170.854 57.5434 170.963L 21.6224 172.222L 21.6137 172.222C 17.0479 172.222 13.58 168.867 13.4318 164.583L 12.9613 151.162C 12.8873 149.049 13.641 147.036 15.083 145.489C 16.5251 143.938 18.4856 143.044 20.5986 142.97L 56.5196 141.711C 59.5606 141.606 62.1223 139.393 62.6669 136.403C 64.6099 125.754 68.4003 115.618 73.9377 106.275C 75.4887 103.657 75.005 100.31 72.7831 98.2314L 46.4817 73.7074C 43.2883 70.7312 43.1097 65.707 46.0853 62.513L 55.243 52.6954C 56.7592 51.0657 58.8155 50.1724 61.0375 50.1724L 61.0418 50.1724C 63.0502 50.1724 64.9628 50.9264 66.4397 52.299L 92.7324 76.823C 93.9697 77.9777 95.5555 78.566 97.1544 78.566ZM 155.046 7.6597e-05L 154.306 0.0130555L 140.883 0.483701C 129.385 0.88895 120.354 10.5756 120.755 22.0838L 121.835 52.9352C 113.409 55.5453 105.38 59.2142 97.8559 63.8811L 75.2707 42.8214C 71.3889 39.2047 66.3396 37.2132 61.0418 37.2132L 61.0375 37.2132C 55.2648 37.2132 49.697 39.636 45.7673 43.8584L 36.6095 53.6758C 28.7631 62.0989 29.2293 75.3328 37.6464 83.185L 60.2314 104.245C 56.1056 112.071 53.0124 120.342 50.9909 128.939L 20.1455 130.02C 14.569 130.216 9.41063 132.569 5.60724 136.647C 1.80384 140.73 -0.182796 146.042 0.0132553 151.62L 0.483759 165.041C 0.880218 176.34 10.038 185.186 21.3349 185.186L 22.0756 185.173L 52.9253 184.092C 55.5437 192.524 59.2076 200.555 63.8693 208.076L 42.8091 230.665C 39.01 234.748 37.0234 240.064 37.2194 245.638C 37.4155 251.211 39.7681 256.374 43.846 260.174L 53.666 269.334C 61.7738 276.881 75.6193 276.393 83.1695 268.297L 104.225 245.707C 112.05 249.838 120.323 252.932 128.91 254.949L 129.995 285.805C 130.387 297.1 139.55 305.95 150.846 305.95L 151.587 305.941L 165.01 305.466C 170.578 305.27 175.745 302.917 179.544 298.838C 183.343 294.76 185.33 289.444 185.138 283.87L 184.057 253.019C 192.483 250.405 200.517 246.731 208.037 242.069L 230.622 263.129C 238.725 270.68 252.584 270.192 260.125 262.096L 269.283 252.274C 277.129 243.855 276.668 230.613 268.251 222.765L 245.661 201.705C 249.787 193.875 252.88 185.608 254.902 177.015L 285.751 175.935C 297.253 175.53 306.28 165.843 305.879 154.334L 305.409 140.913C 305.012 129.614 295.855 120.769 284.553 120.769L 283.817 120.782L 252.972 121.862C 250.353 113.426 246.689 105.395 242.023 97.8742L 263.084 75.2849C 266.883 71.2063 268.869 65.89 268.673 60.3168C 268.477 54.7435 266.125 49.5799 262.042 45.7802L 252.227 36.6207C 244.114 29.0647 230.269 29.5658 222.723 37.649L 201.667 60.2427C 193.843 56.1162 185.574 53.0222 176.982 51.0047L 175.897 20.1449C 175.501 8.85018 166.343 7.6597e-05 155.046 7.6597e-05"/>
<path id="path13_fill" d="M 75.1997 110.57C 93.9117 111.381 109.735 96.8704 110.55 78.1548C 111.36 59.4393 96.8524 43.6128 78.1404 42.8023C 59.4284 41.9875 43.6048 56.5023 42.7901 75.2135C 41.9798 93.929 56.492 109.756 75.1997 110.57ZM 8.1675 62.6507L 26.9623 63.4657C 28.5395 57.5133 31.1491 52.0054 34.5822 47.125L 21.8649 33.2505C 19.0505 30.1828 19.2553 25.4157 22.3268 22.6007L 27.5069 17.8511C 30.574 15.0361 35.3402 15.2453 38.1503 18.313L 50.8718 32.1873C 56.0302 29.1893 61.7417 27.0673 67.8106 26.0085L 68.6254 7.21006C 68.804 3.05299 72.3199 -0.171476 76.4761 0.0071817L 83.4991 0.31208C 87.6554 0.490738 90.8793 4.00737 90.7007 8.1688L 89.8861 26.967C 95.8373 28.5444 101.344 31.1546 106.224 34.5926L 106.224 34.5884L 120.095 21.8688C 123.167 19.0539 127.933 19.263 130.743 22.3307L 135.492 27.5117C 138.306 30.5794 138.097 35.3466 135.03 38.1572L 121.158 50.8812C 124.156 56.0405 126.282 61.7531 127.336 67.8232L 146.131 68.6381C 150.292 68.8167 153.516 72.3332 153.333 76.4946L 153.028 83.5145C 152.849 87.6759 149.333 90.9006 145.172 90.7176L 126.378 89.9027C 124.801 95.855 122.191 101.363 118.758 106.243L 131.475 120.122C 134.289 123.19 134.08 127.957 131.013 130.767L 125.833 135.521C 122.766 138.332 118 138.127 115.19 135.06L 102.468 121.181C 97.3098 124.179 91.5983 126.305 85.5337 127.36L 84.7146 146.158C 84.536 150.32 81.0201 153.544 76.8638 153.361L 69.8409 153.056C 65.6803 152.878 62.4563 149.361 62.6393 145.204L 63.4539 126.401C 57.5027 124.824 51.9958 122.214 47.1163 118.78L 33.2403 131.504C 30.1732 134.314 25.407 134.11 22.5969 131.042L 17.8437 125.856C 15.0336 122.789 15.2428 118.022 18.3099 115.211L 32.1817 102.487C 29.1843 97.3278 27.0581 91.6151 26.0038 85.5494L 7.20905 84.7347C 3.04841 84.5517 -0.175562 81.0351 0.00741928 76.878L 0.312367 69.8536C 0.490991 65.6966 4.00686 62.4721 8.1675 62.6507"/>
<path id="path14_fill" d="M 83.1776 110.598L 81.9621 110.572C 74.6385 110.254 67.8813 107.103 62.9277 101.704C 57.9742 96.301 55.4255 89.2942 55.7435 81.9736C 56.3796 67.2539 68.404 55.724 83.1209 55.724L 84.3365 55.75C 91.6601 56.0681 98.4174 59.2186 103.367 64.6176C 108.32 70.0209 110.873 77.0279 110.555 84.3485C 109.919 99.0682 97.8902 110.598 83.1776 110.598ZM 83.1209 42.7689C 61.4464 42.7689 43.7365 59.7415 42.7998 81.4114C 42.3337 92.1876 46.089 102.506 53.3821 110.463C 60.6709 118.415 70.6216 123.052 81.4001 123.518C 103.894 124.416 122.532 107.173 123.499 84.9149C 123.969 74.1301 120.21 63.8158 112.921 55.8634C 105.628 47.9066 95.677 43.2701 84.8985 42.8038C 84.306 42.782 83.7091 42.7689 83.1209 42.7689L 83.1209 42.7689ZM 57.3511 45.1439C 58.4664 45.1439 59.5905 44.8564 60.6056 44.2681C 65.2019 41.5926 70.1772 39.7798 75.3965 38.8691C 78.3939 38.3462 80.6246 35.8057 80.7596 32.7685L 81.5744 13.9659C 81.6005 13.3994 82.0623 12.9593 82.6243 12.9593L 82.6243 6.47962L 82.6765 12.9593L 89.6996 13.2599C 90.1963 13.2817 90.7322 13.8655 90.7104 14.3623L 89.8956 33.1651C 89.7606 36.2067 91.7647 38.9302 94.7098 39.7101C 99.8202 41.061 104.621 43.3005 108.978 46.3639C 111.461 48.1156 114.838 47.8978 117.081 45.8411L 130.953 33.1215C 131.319 32.786 131.855 32.5332 132.452 33.1869L 137.196 38.368C 137.593 38.7994 137.562 39.466 137.131 39.8625L 123.259 52.5821C 121.016 54.6388 120.506 57.9811 122.035 60.613C 124.706 65.2102 126.522 70.1908 127.433 75.4111C 127.951 78.4091 130.491 80.6403 133.532 80.771L 152.331 81.5857C 152.911 81.6119 153.368 82.1044 153.342 82.6883L 153.037 89.7126C 153.011 90.2704 152.541 90.7235 151.987 90.7235L 133.136 89.9086C 130.121 89.8127 127.376 91.7737 126.592 94.7238C 125.241 99.8439 123.002 104.646 119.944 108.99C 118.188 111.478 118.406 114.851 120.462 117.099L 133.179 130.974L 133.114 132.468L 127.934 137.223C 127.577 137.549 127.041 137.802 126.444 137.157L 113.722 123.279C 111.662 121.039 108.32 120.533 105.693 122.054C 101.097 124.73 96.117 126.547 90.8977 127.453C 87.9003 127.976 85.6696 130.516 85.5389 133.558L 84.7243 152.36C 84.6981 152.923 84.2363 153.367 83.6742 153.367L 76.5946 153.062C 76.0152 153.036 75.5665 152.544 75.5927 151.96L 76.403 133.157C 76.538 130.115 74.5296 127.392 71.5888 126.616C 66.474 125.261 61.6729 123.021 57.325 119.958C 54.8329 118.211 51.4609 118.429 49.2172 120.481L 35.3455 133.201C 34.9882 133.532 34.448 133.784 33.8511 133.14L 29.0979 127.954C 28.7058 127.527 28.732 126.856 29.1677 126.459L 43.0394 113.744C 45.2787 111.683 45.7884 108.341 44.2592 105.709C 41.5886 101.112 39.7719 96.1355 38.8657 90.9152C 38.3429 87.9129 35.8029 85.6862 32.762 85.5511L 13.9715 84.7362C 13.4705 84.7144 12.9347 84.1306 12.9565 83.6338L 13.2614 76.6095C 13.2875 76.0517 13.758 75.5986 14.3113 75.5986L 33.1584 76.4135C 36.1079 76.5399 38.9223 74.5485 39.7022 71.6028C 41.0614 66.4783 43.3008 61.6764 46.3592 57.3319C 48.1106 54.8438 47.8928 51.4665 45.8364 49.2224L 33.1191 35.3482L 33.1802 33.8579L 38.3603 29.0996C 38.7219 28.7727 39.2665 28.5111 39.8547 29.1691L 52.5719 43.0436C 53.8353 44.4206 55.5867 45.1439 57.3511 45.1439L 57.3511 45.1439ZM 82.6243 -5.95754e-05C 75.1047 -5.95754e-05 68.9573 5.88706 68.6306 13.4038L 68.0294 27.2431C 64.8534 28.1016 61.7558 29.2303 58.7671 30.6247L 49.4089 20.4107C 44.39 14.9333 35.0972 14.5192 29.6077 19.5522L 24.4276 24.3063C 21.6698 26.8336 20.0578 30.2848 19.8966 34.0279C 19.7354 37.7667 21.0381 41.3485 23.5693 44.1068L 32.9275 54.3163C 31.285 57.1749 29.8909 60.1599 28.7582 63.2537L 14.9257 62.6524L 14.8952 62.6524C 6.77865 62.6524 0.644437 68.5393 0.317685 76.0473L 0.0126309 83.0759C -0.14421 86.8147 1.15852 90.3923 3.6854 93.1506C 6.21664 95.9089 9.66706 97.5211 13.4051 97.6823L 27.242 98.2838C 28.1002 101.46 29.2286 104.559 30.6184 107.548L 20.4107 116.908C 14.7165 122.137 14.3288 131.017 19.5481 136.713L 24.3012 141.894C 29.3201 147.371 38.6174 147.781 44.1025 142.757L 54.3102 133.392C 57.1682 135.039 60.1569 136.429 63.2458 137.562L 62.6488 151.402C 62.3134 159.119 68.3169 165.673 76.037 166.008L 83.06 166.309L 83.0862 166.309C 91.2114 166.309 97.3413 160.426 97.668 152.918L 98.2648 139.079C 101.45 138.22 104.543 137.092 107.532 135.702L 116.894 145.911C 121.917 151.389 131.206 151.799 136.691 146.77L 141.871 142.02C 144.629 139.488 146.236 136.037 146.402 132.299C 146.563 128.556 145.261 124.978 142.729 122.215L 133.367 112.006C 135.018 109.147 136.408 106.162 137.536 103.068L 151.373 103.67L 151.399 103.67C 159.52 103.67 165.654 97.7869 165.977 90.2746L 166.286 83.2504C 166.621 75.5289 160.609 68.9795 152.893 68.644L 139.057 68.0425C 138.198 64.8615 137.07 61.7635 135.676 58.7743L 145.888 49.4141C 151.582 44.1895 151.965 35.3046 146.746 29.6093L 142.002 24.4282C 136.965 18.9508 127.677 18.5457 122.196 23.5699L 111.988 32.9341C 109.126 31.2826 106.146 29.8926 103.053 28.764L 103.65 14.9244C 103.815 11.1857 102.513 7.60386 99.9814 4.84555C 97.4545 2.08724 93.9997 0.479361 90.2616 0.313775L 83.2342 0.0131321L 82.6243 -5.95754e-05"/>
<path id="path15_fill" d="M 238.082 -1.21319e-05L 3.02501e-05 -1.21319e-05L 73.5991 322.858L 164.483 322.858L 238.082 -1.21319e-05Z"/>
<path id="path16_fill" d="M 41.5291 36.9463L 233.389 36.9463L 168.215 322.864L 106.709 322.864L 41.5291 36.9463ZM 256.683 -6.06597e-06L 18.421 -6.06597e-06C 12.8144 -6.06597e-06 7.51126 2.56534 4.01716 6.96312C 0.523062 11.3609 -0.784122 17.1067 0.461116 22.5915L 74.0664 345.449C 75.9807 353.847 83.4274 359.804 92.0263 359.804L 182.898 359.804C 191.497 359.804 198.943 353.847 200.858 345.449L 273.887 25.0946C 274.68 23.0386 275.107 20.8087 275.107 18.4732C 275.107 8.27378 266.861 -6.06597e-06 256.683 -6.06597e-06Z"/>
<path id="path17_fill" d="M -2.11751e-05 6.06597e-06L 183.199 6.06597e-06L 160.568 99.2856L 22.6373 99.2856L -2.11751e-05 6.06597e-06"/>
<path id="path18_fill" d="M 41.5327 36.9401L 178.509 36.9401L 164.303 99.2793L 55.7383 99.2793L 41.5327 36.9401L 41.5327 36.9401ZM 201.617 1.81979e-05L 18.4246 1.81979e-05C 12.8117 1.81979e-05 7.50858 2.55915 4.01448 6.95693C 0.520384 11.3547 -0.786795 17.1066 0.464638 22.5914L 23.0958 121.871C 25.0101 130.269 32.4629 136.226 41.0557 136.226L 178.986 136.226C 187.585 136.226 195.032 130.269 196.946 121.871L 219.577 22.5914C 220.828 17.1066 219.521 11.3547 216.027 6.95693C 212.533 2.55915 207.23 1.81979e-05 201.617 1.81979e-05"/>
<path id="path19_fill" d="M 2.42001e-05 6.06597e-06L 310.884 6.06597e-06L 310.884 54.7976L 2.42001e-05 54.7976L 2.42001e-05 6.06597e-06Z"/>
<path id="path20_fill" d="M 36.8491 36.9463L 310.888 36.9463L 310.888 54.7983L 36.8491 54.7983L 36.8491 36.9463ZM 329.306 0L 18.4246 0C 8.25202 0 0 8.27378 0 18.4732L 0 73.2715C 0 83.4708 8.25202 91.7446 18.4246 91.7446L 329.306 91.7446C 339.479 91.7446 347.731 83.4708 347.731 73.2715L 347.731 18.4732C 347.731 8.27378 339.479 0 329.306 0Z"/>
<path id="path21_fill" fill-rule="evenodd" d="M 17.1394 21.1401C 17.7185 21.7129 18.4758 22 19.2346 22C 19.9932 22 20.7505 21.7129 21.3298 21.1401C 22.4871 19.9918 22.4871 18.1325 21.3298 16.9869L 15.2891 11.0002L 21.3298 5.01311C 22.4871 3.86748 22.4871 2.00814 21.3298 0.861197C 20.1726 -0.287066 18.2966 -0.287066 17.1394 0.861197L 11.0989 6.84759L 5.05835 0.861197C 3.90112 -0.287066 2.02515 -0.287066 0.86792 0.861197C -0.289307 2.00814 -0.289307 3.86748 0.86792 5.01311L 6.90869 11.0002L 0.86792 16.9869C -0.289307 18.1325 -0.289307 19.9918 0.86792 21.1401C 1.44727 21.7129 2.20581 22 2.96313 22C 3.72168 22 4.48047 21.7129 5.05835 21.1401L 11.0989 15.1532L 17.1394 21.1401Z"/>
<path id="path22_fill" fill-rule="evenodd" d="M 10.9111 24.5818C 10.9111 26.131 12.1711 27.3872 13.7209 27.3872C 15.2708 27.3872 16.5308 26.131 16.5308 24.5818L 16.5308 16.4977L 24.6331 16.4977C 26.1826 16.4977 27.4429 15.2415 27.4429 13.6923C 27.4429 12.1444 26.1826 10.8882 24.6331 10.8882L 16.5308 10.8882L 16.5308 2.80411C 16.5308 1.25494 15.2708 0 13.7209 0C 12.1711 0 10.9111 1.25494 10.9111 2.80411L 10.9111 10.8882L 2.80981 10.8882C 1.26001 10.8882 0 12.1444 0 13.6923C 0 15.2415 1.26001 16.4977 2.80981 16.4977L 10.9111 16.4977L 10.9111 24.5818Z"/>
</defs>
</svg>
