<svg width="665" height="124" viewBox="0 0 665 124" version="1.1" xmlns="http://www.w3.org/2000/svg" xmlns:xlink="http://www.w3.org/1999/xlink">
<title>logo-3XDCapital</title>
<desc>Created using Figma</desc>
<g id="Canvas" transform="translate(-1045 578)">
<g id="logo-3XDCapital">
<g id="XMLID 20">
<g id="XMLID 231">
<g id="XMLID 255">
<use xlink:href="#path0_fill" transform="translate(1045 -578)" fill="#009D3A"/>
</g>
<g id="XMLID 253">
<use xlink:href="#path1_fill" transform="translate(1131.79 -576.312)" fill="#009D3A"/>
</g>
<g id="XMLID 250">
<use xlink:href="#path2_fill" transform="translate(1248.42 -576.312)" fill="#009D3A"/>
</g>
<g id="XMLID 248">
<use xlink:href="#path3_fill" transform="translate(1351.63 -565.637)" fill="#009D3A"/>
</g>
<g id="XMLID 245">
<use xlink:href="#path4_fill" transform="translate(1424.64 -542.552)" fill="#009D3A"/>
</g>
<g id="XMLID 242">
<use xlink:href="#path5_fill" transform="translate(1493.35 -542.643)" fill="#009D3A"/>
</g>
<g id="XMLID 239">
<use xlink:href="#path6_fill" transform="translate(1563.12 -565.91)" fill="#009D3A"/>
</g>
<g id="XMLID 237">
<use xlink:href="#path7_fill" transform="translate(1586.07 -557.972)" fill="#009D3A"/>
</g>
<g id="XMLID 234">
<use xlink:href="#path8_fill" transform="translate(1633.39 -542.552)" fill="#009D3A"/>
</g>
<g id="XMLID 232">
<use xlink:href="#path9_fill" transform="translate(1702.06 -571.43)" fill="#009D3A"/>
</g>
</g>
</g>
</g>
</g>
<defs>
<path id="path0_fill" d="M 27.2406 30.0191L 1.50577 25.4113C 3.65034 17.1994 7.75697 10.9492 13.8256 6.56953C 19.8943 2.18983 28.5182 5.56907e-06 39.6518 5.56907e-06C 52.428 5.56907e-06 61.6907 2.37234 67.3943 7.16263C 73.098 11.9529 75.9726 17.9294 75.9726 25.1376C 75.9726 29.3804 74.8319 33.2127 72.5048 36.6343C 70.1777 40.0559 66.7099 43.067 62.0101 45.6674C 65.7973 46.6255 68.6719 47.6748 70.6796 48.9522C 73.9193 50.9595 76.4745 53.6056 78.2541 56.8904C 80.0336 60.1751 80.9462 64.053 80.9462 68.6152C 80.9462 74.3179 79.4404 79.7925 76.4745 85.039C 73.5086 90.2855 69.1739 94.3002 63.5615 97.1288C 57.9491 99.9573 50.5572 101.372 41.4313 101.372C 32.5336 101.372 25.5067 100.322 20.3506 98.2237C 15.1945 96.1251 10.951 93.0684 7.66571 89.0537C 4.33478 85.039 1.77954 79.975 2.59372e-14 73.8617L 27.195 70.2575C 28.2445 75.7321 29.9328 79.5187 32.1686 81.663C 34.4044 83.7616 37.2791 84.8565 40.7469 84.8565C 44.3972 84.8565 47.4544 83.5335 49.8727 80.8418C 52.2911 78.1501 53.523 74.5916 53.523 70.1663C 53.523 65.6041 52.3367 62.0913 50.0096 59.6277C 47.6825 57.1185 44.4885 55.8867 40.4731 55.8867C 38.3285 55.8867 35.4083 56.4341 31.6667 57.4834L 33.0812 38.0486C 34.5869 38.2767 35.7733 38.3679 36.6402 38.3679C 40.1993 38.3679 43.1652 37.2274 45.5836 34.9463C 47.9563 32.6652 49.1427 29.9735 49.1427 26.8712C 49.1427 23.9058 48.2301 21.4879 46.4505 19.7086C 44.671 17.9294 42.207 17.0169 39.1042 17.0169C 35.9102 17.0169 33.3093 17.975 31.3016 19.9367C 29.294 21.8985 27.9251 25.1832 27.2406 30.0191Z"/>
<path id="path1_fill" d="M 3.05715 1.11381e-05L 36.4121 1.11381e-05L 53.7512 30.156L 70.634 1.11381e-05L 103.67 1.11381e-05L 73.1892 47.4467L 106.544 97.95L 72.5048 97.95L 53.158 66.4709L 33.8112 97.95L 5.56997e-06 97.95L 33.8112 46.8992L 3.05715 1.11381e-05Z"/>
<path id="path2_fill" d="M -5.56997e-06 1.11381e-05L 44.9904 1.11381e-05C 53.8425 1.11381e-05 61.0062 1.18616 66.4817 3.60412C 71.9573 6.02207 76.4289 9.44371 80.0336 13.9603C 83.5927 18.4768 86.1936 23.6777 87.7906 29.6542C 89.3876 35.6306 90.2089 41.972 90.2089 48.6328C 90.2089 59.1258 89.0226 67.2009 86.6499 72.9949C 84.2771 78.7432 80.9462 83.5791 76.7027 87.5026C 72.4592 91.3804 67.9419 93.9809 63.0596 95.3039C 56.3977 97.0832 50.4203 97.9956 44.9904 97.9956L -5.56997e-06 97.9956L -5.56997e-06 1.11381e-05L -5.56997e-06 1.11381e-05ZM 30.2978 22.1722L 30.2978 75.6866L 37.7353 75.6866C 44.0778 75.6866 48.5495 75.0022 51.2416 73.5879C 53.9337 72.1736 55.987 69.7557 57.5384 66.2428C 59.0442 62.7299 59.8199 57.0729 59.8199 49.2259C 59.8199 38.8242 58.1316 31.7527 54.755 27.9205C 51.3785 24.0883 45.7661 22.1722 37.9179 22.1722L 30.2978 22.1722L 30.2978 22.1722Z"/>
<path id="path3_fill" d="M 62.1013 75.5497C 62.1013 76.0515 62.0557 76.5078 62.0557 76.8727C 62.0101 77.2833 61.9644 77.6483 61.8732 77.922C 61.7819 78.2413 61.645 78.5151 61.5082 78.7888C 61.3713 79.0625 61.0519 79.3819 60.6412 79.8381C 60.2306 80.2487 59.2723 80.9331 57.8578 81.8911C 56.4433 82.8492 54.6182 83.8072 52.4736 84.7196C 50.329 85.6777 47.8194 86.4533 45.036 87.1376C 42.2526 87.822 39.1498 88.1413 35.7277 88.1413C 30.2978 88.1413 25.3698 87.1832 20.9438 85.3128C 16.5178 83.4423 12.7762 80.6593 9.6734 77.0096C 6.57061 73.3598 4.19789 68.8433 2.50961 63.5055C 0.821326 58.1678 -5.18744e-14 52.0545 -5.18744e-14 45.2112C -5.18744e-14 38.1854 0.912595 31.844 2.69213 26.2782C 4.47167 20.6667 6.98128 15.922 10.221 12.0442C 13.4606 8.1663 17.3391 5.15525 21.8564 3.10227C 26.3737 1.04929 31.3929 -5.56907e-06 36.8684 -5.56907e-06C 39.4693 -5.56907e-06 41.9789 0.22812 44.3972 0.72996C 46.8156 1.2318 49.0514 1.82487 51.1047 2.60044C 53.158 3.37601 54.9832 4.24283 56.6258 5.20089C 58.2685 6.15895 59.3636 6.98014 59.9568 7.57323C 60.55 8.16631 60.915 8.62251 61.0975 8.89624C 61.2344 9.16997 61.3713 9.4437 61.4625 9.80868C 61.5538 10.128 61.5994 10.5386 61.645 10.9492C 61.6907 11.3598 61.6907 11.8617 61.6907 12.3635C 61.6907 13.0022 61.645 13.5497 61.5994 14.0059C 61.5538 14.4621 61.4169 14.8727 61.28 15.192C 61.1431 15.5114 60.915 15.7851 60.7325 15.9676C 60.5043 16.1501 60.2305 16.2414 59.9111 16.2414C 59.2723 16.2414 58.4054 15.7851 57.2646 14.8727C 56.1239 13.9603 54.6182 12.9566 52.793 11.816C 50.9222 10.7211 48.6864 9.67182 45.9942 8.75938C 43.3021 7.84695 40.1537 7.39073 36.4577 7.39073C 32.3967 7.39073 28.7008 8.21192 25.2786 9.80868C 21.902 11.4511 18.9817 13.8234 16.5634 16.9713C 14.145 20.1192 12.2286 24.0427 10.8597 28.6505C 9.49087 33.3039 8.80643 38.596 8.80643 44.6181C 8.80643 50.3664 9.44526 55.4761 10.6772 59.9014C 11.9092 64.3723 13.7344 68.1133 16.1071 71.17C 18.4798 74.2267 21.4001 76.5533 24.8679 78.1501C 28.3357 79.7469 32.3055 80.5681 36.6859 80.5681C 40.2906 80.5681 43.439 80.1119 46.1311 79.1994C 48.8232 78.287 51.1503 77.2833 53.0668 76.1427C 54.9832 75.0478 56.5346 73.9985 57.7666 73.0861C 58.9985 72.1737 59.9568 71.7174 60.5956 71.7174C 60.8693 71.7174 61.0975 71.7631 61.28 71.8999C 61.4625 71.9912 61.5994 72.2193 61.7363 72.493C 61.8276 72.7667 61.9188 73.1774 62.0101 73.6792C 62.0557 74.2267 62.1013 74.8197 62.1013 75.5497Z"/>
<path id="path4_fill" d="M 46.633 62.8668C 46.633 63.323 46.4961 63.6424 46.1767 63.9161C 45.903 64.1442 45.4923 64.3267 45.036 64.4636C 44.5797 64.5548 43.9409 64.6461 43.1196 64.6461C 42.3439 64.6461 41.7051 64.6004 41.2032 64.4636C 40.6556 64.3723 40.2449 64.1899 39.9712 63.9161C 39.6974 63.688 39.5149 63.323 39.5149 62.8668L 39.5149 56.1148C 36.7771 59.0346 33.8113 61.3157 30.5259 62.9125C 27.2406 64.5092 23.8641 65.3304 20.3506 65.3304C 17.2022 65.3304 14.3276 64.9198 11.818 64.0986C 9.30837 63.2774 7.1638 62.0912 5.42989 60.5401C 3.69598 58.989 2.37271 57.1641 1.41449 54.9743C 0.456281 52.7844 0 50.3208 0 47.6292C 0 44.2988 0.684438 41.3789 2.05331 38.9154C 3.42219 36.4518 5.38426 34.3988 7.93949 32.7564C 10.4947 31.114 13.5519 29.8823 17.111 29.0611C 20.67 28.2399 24.6398 27.8293 29.0202 27.8293L 38.6479 27.8293L 38.6479 22.6284C 38.6479 20.028 38.3742 17.7469 37.8266 15.7851C 37.2791 13.8234 36.4121 12.1354 35.2257 10.8124C 34.0394 9.48932 32.4424 8.48565 30.5259 7.80132C 28.6095 7.117 26.2824 6.79767 23.499 6.79767C 20.8069 6.79767 18.4342 7.11701 16.2896 7.75571C 14.145 8.39442 12.2743 9.12433 10.6772 9.94553C 9.08022 10.7667 7.75694 11.4511 6.70747 12.1354C 5.658 12.7741 4.92798 13.0934 4.47168 13.0934C 4.19791 13.0934 3.96972 13.0479 3.74157 12.9566C 3.51343 12.8654 3.33093 12.6828 3.19404 12.4547C 3.05716 12.2266 2.92029 11.9073 2.87466 11.4967C 2.82903 11.1317 2.78337 10.6755 2.78337 10.128C 2.78337 9.16997 2.82901 8.44001 2.9659 7.89255C 3.10279 7.34508 3.42221 6.79765 4.01539 6.20456C 4.56294 5.6571 5.56679 4.97278 6.98129 4.24283C 8.3958 3.46726 10.0384 2.78292 11.9092 2.14421C 13.78 1.50551 15.7421 0.958063 17.8866 0.593089C 20.0312 0.228114 22.1758 1.11381e-05 24.3204 1.11381e-05C 28.4726 1.11381e-05 31.9405 0.501845 34.8151 1.50552C 37.6441 2.5092 39.9712 3.92346 41.7507 5.79396C 43.5303 7.66445 44.7623 9.99119 45.538 12.7285C 46.3137 15.4658 46.6787 18.568 46.6787 22.0353L 46.6787 62.8668L 46.633 62.8668ZM 38.6936 34.3532L 27.6513 34.3532C 24.4572 34.3532 21.6282 34.6269 19.2099 35.22C 16.7915 35.8131 14.7839 36.6343 13.1869 37.7748C 11.5898 38.8697 10.4034 40.2384 9.62775 41.7896C 8.85205 43.3407 8.4414 45.1199 8.4414 47.1273C 8.4414 50.5945 9.53653 53.3775 11.7724 55.4305C 14.0082 57.4835 17.0653 58.5327 21.0807 58.5327C 24.2291 58.5327 27.195 57.7116 29.9327 56.1148C 32.6705 54.4724 35.5908 51.9632 38.6479 48.5872L 38.6479 34.3532L 38.6936 34.3532Z"/>
<path id="path5_fill" d="M 52.7473 31.844C 52.7473 36.9993 52.1998 41.6527 51.0591 45.8043C 49.9183 49.9558 48.2301 53.4687 46.0399 56.3429C 43.8497 59.2171 41.1119 61.4982 37.8722 63.0493C 34.6326 64.6461 30.891 65.4216 26.6931 65.4216C 24.9135 65.4216 23.2253 65.2392 21.6739 64.8742C 20.1225 64.5092 18.5711 63.9161 17.1109 63.0949C 15.6052 62.2737 14.1451 61.2701 12.6393 60.0839C 11.1335 58.8977 9.58213 57.4378 7.93948 55.7498L 7.93948 86.9551C 7.93948 87.2289 7.89384 87.457 7.75695 87.6851C 7.62007 87.9132 7.39191 88.0957 7.11813 88.2325C 6.84436 88.3694 6.43371 88.5063 5.93178 88.5519C 5.42986 88.5975 4.74546 88.6431 3.96976 88.6431C 3.19407 88.6431 2.55522 88.5975 2.0533 88.5519C 1.55138 88.5063 1.14074 88.3694 0.821337 88.2325C 0.501932 88.0957 0.319404 87.8676 0.182517 87.6851C 0.0912584 87.457 -1.11399e-05 87.2289 -1.11399e-05 86.9551L -1.11399e-05 2.46357C -1.11399e-05 2.14421 0.0456292 1.87049 0.182517 1.64238C 0.273775 1.41427 0.501943 1.23178 0.775719 1.09491C 1.04949 0.958046 1.46016 0.866825 1.91645 0.775581C 2.37274 0.684338 2.9659 0.684332 3.60471 0.684332C 4.24352 0.684332 4.83667 0.72996 5.29296 0.775581C 5.74926 0.821203 6.11429 0.958046 6.43369 1.09491C 6.7531 1.23178 6.98125 1.41427 7.11813 1.64238C 7.25502 1.87049 7.30066 2.14421 7.30066 2.46357L 7.30066 11.223C 9.17146 9.30687 10.951 7.66447 12.6393 6.2502C 14.3276 4.83592 16.0159 3.69537 17.7041 2.73731C 19.3924 1.77926 21.1263 1.09493 22.9059 0.684332C 24.6854 0.228114 26.6018 5.56907e-06 28.6095 5.56907e-06C 32.9899 5.56907e-06 36.6859 0.821198 39.7887 2.5092C 42.8915 4.19721 45.3554 6.47827 47.3175 9.35244C 49.2339 12.2266 50.6484 15.6027 51.5154 19.4805C 52.3367 23.3584 52.7473 27.4643 52.7473 31.844ZM 44.3972 33.0758C 44.3972 29.6998 44.1234 26.415 43.5759 23.2671C 43.0283 20.1192 42.1614 17.3363 40.8837 14.8727C 39.6061 12.4091 37.9179 10.4474 35.8189 8.9875C 33.72 7.5276 31.0278 6.79763 27.8338 6.79763C 26.2368 6.79763 24.6398 7.02574 23.134 7.48196C 21.5826 7.93818 20.0312 8.66815 18.4342 9.67183C 16.8372 10.6755 15.1489 12.0441 13.415 13.6409C 11.6811 15.2833 9.85591 17.2907 7.93948 19.7086L 7.93948 46.0324C 11.2704 50.0927 14.4645 53.195 17.5216 55.3392C 20.5788 57.4834 23.7728 58.5784 27.1037 58.5784C 30.1609 58.5784 32.8074 57.8484 35.0432 56.3429C 37.2334 54.8374 39.0586 52.8757 40.4274 50.4577C 41.7963 48.0398 42.8002 45.3025 43.4846 42.2458C 44.0778 39.2348 44.3972 36.1781 44.3972 33.0758Z"/>
<path id="path6_fill" d="M 10.4491 5.38337C 10.4491 7.52759 10.0841 8.98749 9.30837 9.71744C 8.53267 10.493 7.16381 10.858 5.15612 10.858C 3.19407 10.858 1.82518 10.493 1.09511 9.76305C 0.365045 9.0331 0 7.57322 0 5.47462C 0 3.37602 0.365034 1.8705 1.14073 1.14055C 1.91643 0.36498 3.28529 5.56907e-06 5.29298 5.56907e-06C 7.25503 5.56907e-06 8.62392 0.364963 9.35399 1.09491C 10.0841 1.82486 10.4491 3.23915 10.4491 5.38337ZM 9.26275 86.2252C 9.26275 86.4989 9.21711 86.727 9.08022 86.9551C 8.94333 87.1833 8.71518 87.3657 8.4414 87.5026C 8.16763 87.6395 7.75698 87.7307 7.25505 87.8219C 6.75313 87.9132 6.06867 87.9588 5.29298 87.9588C 4.51728 87.9588 3.87849 87.9132 3.37657 87.8219C 2.87465 87.7307 2.46395 87.6395 2.14455 87.5026C 1.82515 87.3657 1.64267 87.1833 1.50579 86.9551C 1.41453 86.727 1.32326 86.4989 1.32326 86.2252L 1.32326 25.7307C 1.32326 25.4569 1.3689 25.2288 1.50579 25.0007C 1.59704 24.7726 1.82515 24.5901 2.14455 24.4533C 2.46395 24.3164 2.87465 24.1795 3.37657 24.1339C 3.87849 24.0883 4.51728 24.0427 5.29298 24.0427C 6.1143 24.0427 6.75313 24.0883 7.25505 24.1339C 7.75698 24.1795 8.16763 24.3164 8.4414 24.4533C 8.71518 24.5901 8.94333 24.8183 9.08022 25.0007C 9.21711 25.2288 9.26275 25.4569 9.26275 25.7307L 9.26275 86.2252Z"/>
<path id="path7_fill" d="M 37.7353 74.6829C 37.7353 75.6409 37.6441 76.3709 37.5072 76.964C 37.3703 77.5571 37.0965 78.0133 36.7771 78.3326C 36.4577 78.652 35.9558 78.9713 35.317 79.2907C 34.6782 79.5644 33.9025 79.8381 33.0812 80.0206C 32.2142 80.2031 31.3473 80.3856 30.3891 80.4768C 29.4308 80.5681 28.5183 80.6593 27.6513 80.6593C 24.6854 80.6593 22.1301 80.2487 20.0312 79.4732C 17.9323 78.652 16.244 77.4658 14.8751 75.8234C 13.5519 74.181 12.548 72.1281 11.9549 69.6645C 11.3617 67.1553 11.0423 64.2355 11.0423 60.8595L 11.0423 23.2215L 2.00766 23.2215C 1.36885 23.2215 0.912584 22.9477 0.54755 22.4003C 0.182517 21.8528 2.22799e-05 20.986 2.22799e-05 19.8911C 2.22799e-05 19.298 0.0456181 18.7962 0.136876 18.3856C 0.228135 17.975 0.365034 17.61 0.54755 17.3363C 0.730067 17.0625 0.958224 16.8344 1.18637 16.6976C 1.41452 16.5607 1.68826 16.5151 2.00766 16.5151L 11.0423 16.5151L 11.0423 1.688C 11.0423 1.41427 11.0879 1.18617 11.2248 0.958063C 11.3161 0.729954 11.5442 0.547461 11.8636 0.410596C 12.183 0.273731 12.5937 0.13686 13.0956 0.091238C 13.5975 0.0456162 14.2363 -1.11381e-05 15.012 -1.11381e-05C 15.8333 -1.11381e-05 16.4721 0.0456162 16.9741 0.091238C 17.476 0.13686 17.8866 0.273731 18.1604 0.410596C 18.4342 0.547461 18.6623 0.775576 18.7992 0.958063C 18.9361 1.18617 18.9818 1.41427 18.9818 1.688L 18.9818 16.5151L 35.682 16.5151C 36.0014 16.5151 36.2752 16.5607 36.5034 16.6976C 36.7315 16.8344 36.9596 17.0625 37.1421 17.3363C 37.3247 17.61 37.4616 17.975 37.5528 18.3856C 37.6441 18.7962 37.6897 19.298 37.6897 19.8911C 37.6897 20.986 37.5072 21.8528 37.1421 22.4003C 36.7771 22.9477 36.2752 23.2215 35.7277 23.2215L 19.0274 23.2215L 19.0274 59.7645C 19.0274 64.3723 19.6662 67.8396 20.9895 70.2575C 22.3127 72.6755 24.6854 73.8617 28.1532 73.8617C 29.2027 73.8617 30.2065 73.7704 31.0735 73.5423C 31.9404 73.3142 32.7161 73.0861 33.4006 72.8123C 34.085 72.5386 34.6325 72.3105 35.0888 72.0824C 35.5451 71.8543 35.9558 71.7631 36.3209 71.7631C 36.549 71.7631 36.7315 71.8087 36.914 71.8999C 37.0965 71.9912 37.2334 72.1737 37.3703 72.4018C 37.4615 72.6299 37.5529 72.9492 37.6441 73.3598C 37.6897 73.6336 37.7353 74.0898 37.7353 74.6829Z"/>
<path id="path8_fill" d="M 46.633 62.8668C 46.633 63.323 46.4961 63.6424 46.1767 63.9161C 45.903 64.1442 45.4923 64.3267 45.036 64.4636C 44.5797 64.5548 43.9409 64.6461 43.1196 64.6461C 42.3439 64.6461 41.7051 64.6004 41.2032 64.4636C 40.6556 64.3723 40.2449 64.1899 39.9712 63.9161C 39.6974 63.688 39.5149 63.323 39.5149 62.8668L 39.5149 56.1148C 36.7771 59.0346 33.8113 61.3157 30.5259 62.9125C 27.2406 64.5092 23.8641 65.3304 20.3506 65.3304C 17.2022 65.3304 14.3276 64.9198 11.818 64.0986C 9.30837 63.2774 7.1638 62.0912 5.42989 60.5401C 3.69598 58.989 2.37271 57.1641 1.41449 54.9743C 0.456281 52.7844 0 50.3208 0 47.6292C 0 44.2988 0.684438 41.3789 2.05331 38.9154C 3.42219 36.4518 5.38426 34.3988 7.93949 32.7564C 10.4947 31.114 13.5519 29.8823 17.111 29.0611C 20.67 28.2399 24.6398 27.8293 29.0202 27.8293L 38.6479 27.8293L 38.6479 22.6284C 38.6479 20.028 38.3742 17.7469 37.8266 15.7851C 37.2791 13.8234 36.4121 12.1354 35.2257 10.8124C 34.0394 9.48932 32.4424 8.48565 30.5259 7.80132C 28.6095 7.117 26.2824 6.79767 23.499 6.79767C 20.8069 6.79767 18.4342 7.11701 16.2896 7.75571C 14.145 8.39442 12.2743 9.12433 10.6772 9.94553C 9.08022 10.7667 7.75694 11.4511 6.70747 12.1354C 5.658 12.7741 4.92798 13.0934 4.47168 13.0934C 4.19791 13.0934 3.96972 13.0479 3.74157 12.9566C 3.51343 12.8654 3.33093 12.6828 3.19404 12.4547C 3.05716 12.2266 2.92029 11.9073 2.87466 11.4967C 2.82903 11.1317 2.78337 10.6755 2.78337 10.128C 2.78337 9.16997 2.82901 8.44001 2.9659 7.89255C 3.10279 7.34508 3.42221 6.79765 4.01539 6.20456C 4.56294 5.6571 5.56679 4.97278 6.98129 4.24283C 8.3958 3.46726 10.0384 2.78292 11.9092 2.14421C 13.78 1.50551 15.7421 0.958063 17.8866 0.593089C 20.0312 0.228114 22.1758 1.11381e-05 24.3204 1.11381e-05C 28.4726 1.11381e-05 31.9405 0.501845 34.8151 1.50552C 37.6441 2.5092 39.9712 3.92346 41.7507 5.79396C 43.5303 7.66445 44.7623 9.99119 45.538 12.7285C 46.3137 15.4658 46.6787 18.568 46.6787 22.0353L 46.6787 62.8668L 46.633 62.8668ZM 38.6479 34.3532L 27.6057 34.3532C 24.4116 34.3532 21.5826 34.6269 19.1643 35.22C 16.7459 35.8131 14.7383 36.6343 13.1412 37.7748C 11.5442 38.8697 10.3578 40.2384 9.58213 41.7896C 8.80644 43.3407 8.39578 45.1199 8.39578 47.1273C 8.39578 50.5945 9.49085 53.3775 11.7267 55.4305C 13.9625 57.4835 17.0197 58.5327 21.0351 58.5327C 24.1835 58.5327 27.1494 57.7116 29.8871 56.1148C 32.6249 54.4724 35.5451 51.9632 38.6023 48.5872L 38.6023 34.3532L 38.6479 34.3532Z"/>
<path id="path9_fill" d="M 7.93949 91.7454C 7.93949 92.0191 7.89385 92.2473 7.75696 92.4754C 7.62008 92.7035 7.39192 92.8859 7.11814 93.0228C 6.84437 93.1597 6.43372 93.2509 5.9318 93.3421C 5.42987 93.4334 4.74541 93.479 3.96972 93.479C 3.19402 93.479 2.55524 93.4334 2.05331 93.3421C 1.55139 93.2509 1.14075 93.1597 0.821348 93.0228C 0.501943 92.8859 0.319416 92.7035 0.182528 92.4754C 0.0912695 92.2473 1.03749e-13 92.0191 1.03749e-13 91.7454L 1.03749e-13 1.688C 1.03749e-13 1.41427 0.0456403 1.18617 0.182528 0.958063C 0.273786 0.729954 0.501943 0.547461 0.821348 0.410596C 1.14075 0.273731 1.55139 0.13686 2.05331 0.091238C 2.55524 0.0456162 3.19402 -1.11381e-05 3.96972 -1.11381e-05C 4.79104 -1.11381e-05 5.42987 0.0456162 5.9318 0.091238C 6.43372 0.13686 6.84437 0.273731 7.11814 0.410596C 7.39192 0.547461 7.62008 0.775576 7.75696 0.958063C 7.89385 1.18617 7.93949 1.41427 7.93949 1.688L 7.93949 91.7454Z"/>
</defs>
</svg>
